<svg aria-hidden="true" style="position: absolute; width: 0; height: 0; overflow: hidden;" version="1.1" xmlns="http://www.w3.org/2000/svg" xmlns:xlink="http://www.w3.org/1999/xlink">
<defs>
<symbol id="icon-cart" viewBox="0 0 32 32">
<path d="M9.608 21.066h17.626c1.999 0 3.63-1.631 3.63-3.63v-7.417c0-0.006 0-0.019 0-0.025 0-0.019 0-0.031 0-0.050 0-0.012 0-0.025-0.006-0.037 0-0.012-0.006-0.031-0.006-0.044s-0.006-0.025-0.006-0.037c-0.006-0.012-0.006-0.025-0.012-0.044-0.006-0.012-0.006-0.025-0.012-0.037s-0.006-0.025-0.012-0.037c-0.006-0.012-0.013-0.025-0.019-0.044-0.006-0.012-0.012-0.025-0.019-0.031-0.006-0.012-0.012-0.025-0.019-0.037s-0.012-0.019-0.019-0.031c-0.006-0.012-0.019-0.025-0.025-0.037s-0.013-0.019-0.025-0.031c-0.006-0.012-0.019-0.019-0.025-0.031s-0.019-0.019-0.025-0.031c-0.006-0.012-0.019-0.019-0.025-0.025-0.013-0.012-0.019-0.019-0.031-0.031-0.012-0.006-0.019-0.019-0.031-0.025s-0.025-0.019-0.037-0.025c-0.013-0.006-0.019-0.012-0.031-0.019s-0.025-0.012-0.037-0.025c-0.012-0.006-0.025-0.012-0.038-0.019s-0.025-0.012-0.037-0.019-0.025-0.012-0.037-0.019-0.025-0.006-0.038-0.012-0.031-0.012-0.044-0.012c-0.012 0-0.025-0.006-0.031-0.006-0.019-0.006-0.031-0.006-0.050-0.006-0.006 0-0.012-0.006-0.025-0.006l-22.381-3.124v-3.118c0-0.031 0-0.069-0.006-0.094 0-0.006 0-0.013-0.006-0.025 0-0.019-0.006-0.038-0.006-0.056-0.006-0.019-0.006-0.031-0.013-0.050 0-0.013-0.006-0.019-0.006-0.031-0.006-0.019-0.013-0.038-0.019-0.056 0-0.006-0.006-0.019-0.006-0.025-0.006-0.019-0.013-0.031-0.025-0.050-0.006-0.006-0.006-0.019-0.013-0.025-0.006-0.013-0.013-0.025-0.025-0.038-0.006-0.013-0.013-0.019-0.019-0.031s-0.013-0.019-0.019-0.031c-0.006-0.013-0.019-0.025-0.025-0.038-0.006-0.006-0.013-0.013-0.019-0.019-0.013-0.013-0.025-0.025-0.037-0.038-0.006-0.006-0.013-0.013-0.019-0.019-0.013-0.013-0.025-0.025-0.044-0.038-0.006-0.006-0.019-0.013-0.025-0.019-0.013-0.013-0.025-0.019-0.037-0.031-0.019-0.013-0.037-0.025-0.050-0.031-0.006-0.006-0.013-0.006-0.019-0.013-0.025-0.013-0.056-0.025-0.087-0.038l-4.867-2.074c-0.456-0.194-0.975 0.019-1.162 0.475s0.019 0.975 0.475 1.162l4.299 1.812v19.457c0 1.843 1.381 3.368 3.162 3.599-0.325 0.537-0.512 1.168-0.512 1.843 0 1.981 1.612 3.58 3.58 3.58s3.58-1.612 3.58-3.58c0-0.656-0.175-1.281-0.494-1.806h7.979c-0.319 0.531-0.494 1.15-0.494 1.806 0 1.981 1.612 3.58 3.58 3.58s3.58-1.612 3.58-3.58c0-1.968-1.612-3.58-3.58-3.58h-16.751c-1.025 0-1.856-0.837-1.856-1.856v-2.406c0.544 0.306 1.181 0.487 1.856 0.487zM14.026 28.401c0 1-0.812 1.806-1.806 1.806s-1.806-0.812-1.806-1.806c0-0.993 0.812-1.806 1.806-1.806s1.806 0.812 1.806 1.806zM28.19 28.401c0 1-0.812 1.806-1.806 1.806s-1.806-0.812-1.806-1.806c0-0.993 0.812-1.806 1.806-1.806s1.806 0.812 1.806 1.806zM27.235 19.291h-17.626c-1.025 0-1.856-0.837-1.856-1.856v-9.597l21.338 2.937v6.648c0 1.037-0.837 1.868-1.856 1.868z"></path>
</symbol>
</defs>
</svg>
